PathFileType	4	(X/Y/Z)	s01c0301.trc
DataRate	CameraRate	NumFrames	NumMarkers	Units	OrigDataRate	OrigDataStartFrame	OrigNumFrames
200	200	7	48	mm	200	500	2000
Frame#	Time	racr			lacr			c7			jug			rlel			rdr			llel			ldr			s2			lic			ric			lasi			rasi			rpsi			lpsi			rgt			lgt			rth1			rth2			rth3			rth4			rlfc			rsh1			rsh2			rsh3			rsh4			rlmal			rmmal			rcal			rtoe			rmt5			lth1			lth2			lth4			lth3			llfc			lsh1			lsh2			lsh3			lsh4			llmal			lmmal			lcal			ltoe			lmt5			SBIKE			LBIKE			RBIKE			
		X1	Y1	Z1	X2	Y2	Z2	X3	Y3	Z3	X4	Y4	Z4	X5	Y5	Z5	X6	Y6	Z6	X7	Y7	Z7	X8	Y8	Z8	X9	Y9	Z9	X10	Y10	Z10	X11	Y11	Z11	X12	Y12	Z12	X13	Y13	Z13	X14	Y14	Z14	X15	Y15	Z15	X16	Y16	Z16	X17	Y17	Z17	X18	Y18	Z18	X19	Y19	Z19	X20	Y20	Z20	X21	Y21	Z21	X22	Y22	Z22	X23	Y23	Z23	X24	Y24	Z24	X25	Y25	Z25	X26	Y26	Z26	X27	Y27	Z27	X28	Y28	Z28	X29	Y29	Z29	X30	Y30	Z30	X31	Y31	Z31	X32	Y32	Z32	X33	Y33	Z33	X34	Y34	Z34	X35	Y35	Z35	X36	Y36	Z36	X37	Y37	Z37	X38	Y38	Z38	X39	Y39	Z39	X40	Y40	Z40	X41	Y41	Z41	X42	Y42	Z42	X43	Y43	Z43	X44	Y44	Z44	X45	Y45	Z45	X46	Y46	Z46	X47	Y47	Z47	X48	Y48	Z48	
500	2.5000	657.366821	1360.184692	-64.582970	661.146851	1379.120728	-398.364288	616.698059	1456.706299	-224.622726	626.352600	1288.418701	-233.227676	624.480225	1078.013428	24.755135	731.788940	848.343201	-45.909000	604.229004	1105.151367	-518.099304	732.370483	889.884705	-437.714844	93.162369	1216.657227	-232.735977	269.950317	1215.550293	-405.588287	250.329666	1219.040405	-75.163467	270.700043	1159.588867	-377.654419	276.508362	1173.625977	-101.222466	123.192596	1256.401001	-182.057098	128.527191	1254.325562	-288.438141	204.914642	1111.673340	-37.770882	196.603058	1074.613037	-417.976776	307.232880	1032.455811	-21.056025	378.187378	990.541809	-26.106205	452.173676	938.979858	-36.124851	407.462372	1035.124878	-43.049206	504.064880	849.539185	-61.753616	408.559875	781.343323	-37.099216	342.436554	729.262634	-47.418915	268.006134	682.632629	-63.032001	371.514069	696.026550	-87.913177	161.350525	625.391602	-86.756470	201.845001	607.353271	-166.086853	115.439201	639.052246	-145.261108	258.164764	406.683777	-134.878433	174.122787	473.678253	-66.034142	221.751419	951.299561	-422.495087	271.418579	877.533691	-420.888428	316.359894	905.499573	-413.105560	310.215149	803.342529	-401.331848	345.673767	691.833435	-383.713165	301.417786	590.776123	-427.245575	287.922516	505.180664	-423.992126	271.967560	421.230652	-415.491302	341.151093	498.673676	-393.463287	244.620316	297.823761	-402.450104	273.735016	315.277557	-326.104462	195.966415	283.571228	-365.959991	448.512115	167.251923	-369.985535	343.843597	183.545456	-437.978027	-222.703583	893.143250	-249.772308	-11.983994	84.537148	-453.677460	-20.102257	80.768211	-53.649868	
501	2.5050	658.488098	1360.263306	-64.949654	662.923767	1378.686035	-399.079559	618.554321	1456.882812	-225.188583	627.817017	1288.577759	-233.570282	625.077942	1078.278687	23.980944	731.973755	848.537659	-45.909019	606.189148	1104.565308	-518.288452	732.900330	889.054688	-437.477783	94.165779	1217.741211	-234.450180	271.045837	1214.059448	-406.897552	251.008286	1221.027710	-76.419113	271.956390	1159.046753	-378.507843	277.257233	1175.613159	-102.293007	124.363518	1257.769043	-184.102066	130.067596	1254.643677	-290.376862	205.882446	1114.445435	-38.232788	196.066437	1073.797485	-418.413422	309.165497	1036.964233	-22.082928	380.805786	995.984924	-26.638819	455.386932	945.288818	-36.915615	409.490509	1040.829712	-43.819405	507.664337	856.004517	-62.089420	411.937592	787.414124	-37.653679	346.154114	734.892517	-47.920387	271.954803	687.901367	-63.717354	375.321869	701.567627	-88.484894	166.002670	629.822571	-87.034920	206.509659	612.297058	-166.566132	119.586723	642.967285	-145.464432	266.336609	412.879272	-135.296249	181.067093	478.830872	-66.065079	218.078354	950.650269	-422.683289	265.820435	875.621704	-421.528900	311.693970	902.505127	-413.986053	302.713654	800.685181	-402.172424	337.008667	688.552002	-384.489990	293.462189	587.946655	-428.140381	280.230621	502.217133	-424.716095	264.673981	418.222382	-415.995056	333.615936	496.026123	-394.415863	238.920517	294.649872	-402.619080	267.409027	312.010559	-326.180695	190.605942	281.453033	-366.057098	441.443634	161.228027	-370.008606	336.989044	179.154709	-438.038513	-222.775330	893.149231	-249.781494	-11.994893	84.538284	-453.679871	-20.089979	80.776894	-53.656712	
502	2.5100	659.696289	1360.183594	-65.269356	664.575195	1378.265137	-399.883972	620.501099	1457.121338	-225.764633	629.364563	1288.929077	-234.028748	625.473083	1078.468994	23.416574	732.070435	848.879517	-45.809242	608.235352	1103.997437	-518.441833	733.556152	888.284119	-437.263702	95.174500	1219.103027	-236.182755	272.092529	1212.691895	-408.033142	251.688324	1223.201416	-77.753754	273.182922	1158.734253	-379.405884	278.032959	1177.804565	-103.430237	125.479996	1259.400757	-186.108734	131.679733	1255.183472	-292.417603	206.630280	1117.569580	-38.745926	195.365417	1073.229370	-418.807465	310.968964	1041.694702	-23.394096	383.365662	1001.534241	-27.215691	458.528503	951.632751	-37.721252	411.522766	1046.728760	-44.564991	511.231750	862.457581	-62.536091	415.257874	793.491699	-38.180122	349.857330	740.457458	-48.429165	275.955292	692.970215	-64.320656	379.423187	707.190369	-88.744225	170.721680	633.981445	-87.322708	211.179321	616.950378	-167.042480	123.792717	646.393433	-145.678391	274.128479	418.773743	-135.416428	188.541443	483.743958	-65.849503	214.317413	950.310425	-423.036957	260.087677	873.933411	-422.201569	306.671600	899.756470	-415.113342	294.911499	798.291870	-403.030945	328.502350	685.985413	-385.708740	285.300537	585.597717	-429.110291	272.342957	499.827576	-425.511475	257.228546	415.758301	-416.541412	325.995605	493.853180	-395.409119	233.266769	292.115906	-402.904755	260.930389	309.037140	-326.229309	185.202789	279.692261	-365.890991	434.130829	155.686432	-370.134399	329.911987	175.140274	-438.056213	-222.854263	893.158936	-249.745789	-12.005117	84.563721	-453.668610	-20.072126	80.820305	-53.653473	
503	2.5150	660.910583	1360.080566	-65.585266	666.186218	1377.850342	-400.830109	622.498413	1457.438110	-226.341934	630.888733	1289.327759	-234.747589	625.535034	1078.613525	23.063999	732.056641	849.327942	-45.627052	610.390869	1103.523193	-518.553711	734.213135	887.303833	-437.177643	96.257271	1220.630493	-237.967468	273.206940	1211.502319	-409.100037	252.379944	1225.730469	-79.169662	274.266388	1158.399414	-380.367004	278.808075	1180.197144	-104.583649	126.578094	1261.265869	-188.288223	133.283783	1255.932861	-294.483307	207.359802	1121.057373	-39.369278	194.533386	1072.998413	-419.088409	312.773224	1046.605591	-24.587692	385.838287	1007.175110	-27.540352	461.483948	958.022949	-38.446026	413.323853	1052.529785	-45.766708	514.743286	868.937683	-63.028748	418.559326	799.404724	-38.784889	353.576355	745.910645	-48.906567	280.057861	697.814148	-64.834000	383.519135	712.507568	-88.973701	175.514221	637.719299	-87.687904	216.029022	621.140015	-167.512924	127.990387	649.399414	-145.922012	282.513306	424.638397	-135.478821	195.866562	488.030640	-65.956902	210.573318	950.364319	-423.499542	253.946884	872.645386	-422.720276	301.777954	897.425354	-416.534393	287.068573	795.938171	-404.139221	320.089600	683.900085	-387.008911	277.016876	583.698242	-430.146912	264.428467	497.830414	-426.362457	249.728088	413.776489	-417.123169	318.324310	492.171112	-396.592377	227.574371	289.941315	-403.221893	254.320862	306.365509	-326.252197	179.773773	278.653748	-365.769684	426.550018	150.397934	-370.308807	322.600922	171.520920	-438.085144	-222.996994	893.097717	-249.666580	-11.996531	84.497757	-453.779968	-20.078163	80.816376	-53.643929	
504	2.5200	662.175476	1359.775146	-65.886597	667.776245	1377.549072	-401.858032	624.490051	1457.856323	-227.003296	632.406372	1289.918457	-235.470383	625.211792	1078.712158	23.043919	732.051392	850.186157	-45.132042	612.618591	1103.070923	-518.690857	734.749634	886.385559	-437.136780	97.543633	1222.476562	-239.905884	274.416595	1210.808105	-409.919037	253.086151	1228.475952	-80.472610	275.229584	1158.045532	-381.360199	279.536163	1182.628662	-105.790794	127.587738	1263.410034	-190.474869	134.920044	1256.850220	-296.692474	207.843369	1124.830322	-40.078133	193.575806	1073.072510	-419.227844	314.299805	1051.398438	-25.399504	388.107056	1012.759216	-27.987259	464.014648	964.557129	-38.966484	414.834961	1058.145996	-47.339806	518.086914	875.221313	-63.267189	421.909332	805.129578	-39.370804	357.405121	751.093811	-49.409695	284.239441	702.436096	-65.257004	387.491852	717.627441	-89.224449	180.381531	641.068115	-88.040138	221.688324	624.808655	-167.596725	132.175034	652.127380	-145.660080	291.058502	430.069733	-135.560760	203.164536	491.850098	-66.314163	206.881775	950.765747	-423.988739	248.247665	871.910950	-423.780945	296.748199	895.583923	-418.093903	279.560730	794.358093	-405.586700	311.716400	682.331177	-388.319672	268.616302	582.328796	-431.342438	256.504303	496.377014	-427.347748	242.384354	412.128296	-417.778290	310.643341	491.041229	-397.940948	221.930298	288.312744	-403.710022	247.602219	304.003845	-326.251221	174.342026	277.883453	-365.764740	418.808777	145.561340	-370.473938	315.198212	168.387329	-438.124603	-223.056198	893.117493	-249.618713	-12.016933	84.609406	-453.690338	-20.090210	80.854141	-53.647900	
505	2.5250	663.356689	1359.469116	-66.278076	669.349060	1377.259033	-402.992249	626.457092	1458.273438	-227.679138	633.809143	1290.489868	-236.210678	624.539978	1078.823486	23.418108	731.932312	850.739136	-44.921906	614.876404	1102.698730	-518.743103	735.359802	885.390808	-437.004181	100.887604	1223.304321	-243.060944	275.801086	1210.231201	-410.548889	253.858139	1231.329224	-81.788605	276.190826	1157.703003	-382.182495	280.212524	1185.170776	-107.037003	128.818649	1265.507935	-192.585648	136.448700	1258.000244	-298.839783	208.239822	1128.940918	-40.830017	192.648560	1073.605713	-419.579498	315.615387	1056.015869	-25.872555	390.114716	1018.185059	-28.624626	466.430176	970.848083	-39.752972	415.955780	1063.698486	-49.097557	521.613281	881.391968	-64.155167	425.339417	810.597595	-40.026989	361.266418	755.938965	-49.858788	288.552856	706.642639	-65.657150	391.780029	722.635803	-89.402534	185.335144	643.959717	-88.445389	226.073517	628.537048	-168.454041	136.767456	654.063477	-145.922638	299.816437	435.122620	-135.538528	210.877930	495.322693	-66.402489	203.287659	951.589478	-424.671814	242.850983	871.575806	-425.117645	292.138550	894.241760	-419.688171	272.371399	793.333984	-407.397369	303.516174	681.192444	-389.729462	260.286987	581.368591	-432.487671	248.625427	495.297363	-428.380951	235.104416	411.097626	-418.527344	303.085632	490.290894	-399.384735	216.204819	287.059235	-404.140747	240.796219	301.960327	-326.228241	168.744232	277.831848	-365.965210	410.822845	141.145676	-370.619446	307.585022	165.723038	-438.230255	-223.136642	893.127625	-249.573837	-12.017889	84.561348	-453.762604	-20.102823	80.906807	-53.607746	
506	2.5300	664.503784	1359.231934	-66.687592	670.892517	1377.168579	-404.171631	628.375977	1458.726929	-228.393311	635.212769	1291.056519	-237.151489	623.609009	1078.933105	24.036526	731.825317	851.255005	-44.757000	617.198669	1102.434448	-518.917175	735.943909	884.307922	-436.763184	102.182190	1225.417603	-245.073883	277.398071	1210.032471	-411.020416	254.701309	1234.382080	-83.138252	277.209808	1157.546631	-382.947968	280.910065	1187.709961	-108.341553	130.114288	1267.702271	-194.803757	137.968033	1259.324463	-301.108398	208.581512	1133.292236	-41.725033	191.874344	1074.404297	-419.931824	316.948639	1060.470337	-25.930304	391.703644	1023.526794	-29.254072	468.477325	976.974609	-40.670155	416.754395	1068.962158	-51.004158	524.809692	887.289795	-65.027740	428.817719	815.688721	-40.681236	365.228729	760.505371	-50.358608	292.984314	710.452820	-65.980057	396.097107	727.202271	-89.637184	190.536560	646.410583	-88.888504	231.374619	631.534729	-168.904404	141.616058	655.427734	-146.232224	308.735779	439.691101	-135.456985	218.641159	498.425537	-66.445953	200.128738	952.680420	-425.508026	237.749435	871.744934	-426.603790	287.574219	893.366577	-421.424744	265.700378	792.791870	-409.466675	295.513580	680.485352	-391.287140	251.877625	580.807861	-433.753326	240.824829	494.699402	-429.411865	228.003006	410.303741	-419.335266	295.584442	490.095825	-400.932922	210.422089	286.206116	-404.740570	233.924652	300.243164	-326.185181	163.064270	278.331879	-366.484741	402.655457	137.144470	-370.881897	299.834442	163.473206	-438.297241	-223.207245	893.144836	-249.507278	-12.028833	84.585251	-453.774536	-20.126724	80.920349	-53.618206	
